<svg xmlns="http://www.w3.org/2000/svg" viewBox="0 0 175.51 56.69"><defs><style>.cls-1{fill:none;stroke:#fff;stroke-linecap:round;stroke-miterlimit:10;stroke-width:9.43px;}.cls-2{fill:#fff;}</style></defs><g id="Layer_2" data-name="Layer 2"><g id="레이어_1" data-name="레이어 1"><path class="cls-1" d="M35.88,20.05A28.06,28.06,0,0,1,7.71,48"/><path class="cls-2" d="M20,22.15a10,10,0,1,1-10-10A10,10,0,0,1,20,22.15Z"/><path class="cls-2" d="M41.77,5.41A5.42,5.42,0,1,1,36.35,0,5.42,5.42,0,0,1,41.77,5.41Z"/><path class="cls-2" d="M50.86,26.26c0-6.5,4.77-10.22,9.73-10.22a8.1,8.1,0,0,1,6.27,2.71V11.24h4.56V36.06H66.89V33.51a8,8,0,0,1-6.37,3A9.81,9.81,0,0,1,50.86,26.26Zm16.27-.06a5.85,5.85,0,0,0-5.87-6,5.91,5.91,0,0,0-5.94,6,5.91,5.91,0,1,0,11.81,0Z"/><path class="cls-2" d="M73.36,26.26c0-6.5,4.77-10.22,9.73-10.22a8.16,8.16,0,0,1,6.31,2.75V16.44h4.52V36.06H89.4V33.51a8.06,8.06,0,0,1-6.38,3A9.81,9.81,0,0,1,73.36,26.26Zm16.27-.06a5.85,5.85,0,0,0-5.87-6,5.91,5.91,0,0,0-5.94,6,5.91,5.91,0,1,0,11.81,0Z"/><path class="cls-2" d="M114.18,36.06h-4.5V33.81a6.74,6.74,0,0,1-5.63,2.65c-4.7,0-7.55-3.05-7.55-8.39V16.44h4.6V27.61c0,3.05,1.34,4.93,4.19,4.93,2.51,0,4.36-1.88,4.36-5.34V16.44h4.53Z"/><path class="cls-2" d="M115.45,31.7l4.19-2a5,5,0,0,0,4.73,2.86c2.25,0,3.36-1.08,3.36-2.39s-2.19-1.71-4.6-2.24c-3.35-.71-6.88-1.78-6.88-5.91,0-3.15,3.06-6,7.72-6,4,0,6.5,1.54,8,4.06L128.13,22A4.66,4.66,0,0,0,124,19.76c-2.15,0-3.15,1-3.15,2.11,0,1.31,1.54,1.64,4.49,2.28,3.22.64,6.91,1.78,6.91,5.9,0,2.75-2.45,6.41-8,6.41C119.78,36.46,117,34.78,115.45,31.7Z"/><path class="cls-2" d="M133.53,26.3A10.11,10.11,0,0,1,143.72,16a9.8,9.8,0,0,1,10.1,10.09v1.71h-16a5.82,5.82,0,0,0,6,4.63A5.7,5.7,0,0,0,149.32,29L153,31.16a9.8,9.8,0,0,1-9.15,5.3A10,10,0,0,1,133.53,26.3Zm4.56-2.25h11.13c-.67-2.65-2.68-4-5.5-4A5.76,5.76,0,0,0,138.09,24.05Z"/><path class="cls-2" d="M155.19,26.26a10.16,10.16,0,1,1,10.16,10.2A10.1,10.1,0,0,1,155.19,26.26Zm15.86,0a5.71,5.71,0,1,0-11.4,0,5.7,5.7,0,1,0,11.4,0Z"/><path class="cls-2" d="M50.86,44.3H52.2v1.28A3.29,3.29,0,0,1,55,44.12c2.19,0,3.55,1.43,3.55,3.78v4.73H57.21V48c0-1.61-.8-2.62-2.44-2.62A2.54,2.54,0,0,0,52.22,48v4.61H50.86Z"/><path class="cls-2" d="M60,48.47a4.23,4.23,0,0,1,4.25-4.35,3.77,3.77,0,0,1,3.06,1.56V44.3h1.34v8.33H67.28V51.22a3.28,3.28,0,0,1-1.35,1.17,3.91,3.91,0,0,1-1.71.41A4.24,4.24,0,0,1,60,48.47Zm7.41,0a3,3,0,1,0-3,3.09A3,3,0,0,0,67.38,48.46Z"/><path class="cls-2" d="M70.46,44.3H71.8v1.16a3,3,0,0,1,2.66-1.34,3,3,0,0,1,3,1.7A3.58,3.58,0,0,1,84,47.72v4.91H82.67V47.7a2.22,2.22,0,0,0-2.36-2.38,2.33,2.33,0,0,0-2.4,2.51v4.8H76.54V47.57a2.1,2.1,0,0,0-2.28-2.25,2.39,2.39,0,0,0-2.45,2.62v4.69H70.46Z"/><path class="cls-2" d="M85.45,48.51a4.29,4.29,0,0,1,4.34-4.39,4.11,4.11,0,0,1,4.27,4.24v.57H86.78a3.09,3.09,0,0,0,5.86.89l1.15.62a4.1,4.1,0,0,1-3.93,2.36A4.17,4.17,0,0,1,85.45,48.51Zm1.4-.79h5.83a2.69,2.69,0,0,0-2.89-2.38A3,3,0,0,0,86.85,47.72Z"/><path class="cls-2" d="M100.34,48.47a4.29,4.29,0,0,1,4.38-4.35,4.14,4.14,0,0,1,3.9,2.54l-1.21.52a2.85,2.85,0,0,0-2.71-1.8,3.09,3.09,0,0,0,0,6.17,2.87,2.87,0,0,0,2.7-1.9l1.24.55a4.16,4.16,0,0,1-4,2.6A4.29,4.29,0,0,1,100.34,48.47Z"/><path class="cls-2" d="M109.66,48.47A4.33,4.33,0,1,1,114,52.8,4.3,4.3,0,0,1,109.66,48.47Zm7.3,0a3,3,0,1,0-3,3.08A3,3,0,0,0,117,48.47Z"/><path class="cls-2" d="M119.77,44.3h1.34v1.28a3.28,3.28,0,0,1,2.82-1.46c2.18,0,3.55,1.43,3.55,3.78v4.73h-1.37V48c0-1.61-.8-2.62-2.44-2.62A2.54,2.54,0,0,0,121.12,48v4.61h-1.35Z"/><path class="cls-2" d="M128.55,51.08l1.15-.76a2.82,2.82,0,0,0,2.39,1.29c1.24,0,1.86-.65,1.86-1.39s-1.09-1-2.21-1.28c-1.37-.34-2.81-.77-2.81-2.4,0-1.27,1.18-2.43,3.06-2.43a3.92,3.92,0,0,1,3.18,1.38l-1.07.74a2.6,2.6,0,0,0-2.11-1c-1.12,0-1.71.55-1.71,1.24s1,1,2.16,1.28c1.34.34,2.85.72,2.85,2.42,0,1.1-1,2.59-3.24,2.59A4,4,0,0,1,128.55,51.08Z"/><path class="cls-2" d="M136.63,49V44.3H138V49c0,1.61.69,2.62,2.29,2.62,1.42,0,2.26-1.09,2.26-2.66V44.3h1.35v8.33h-1.32V51.46a2.78,2.78,0,0,1-2.52,1.34C137.84,52.8,136.63,51.42,136.63,49Z"/><path class="cls-2" d="M145.66,42.09H147V52.63h-1.37Z"/><path class="cls-2" d="M148.28,44.3h1.46V42.71l1.34-.92V44.3H153v1.22h-1.95V49.4c0,1.66.3,2,1.95,2v1.28h-.2c-2.44,0-3.09-.71-3.09-3.22V45.52h-1.46Z"/><path class="cls-2" d="M155.15,41.3a1,1,0,1,1-1,1A.92.92,0,0,1,155.15,41.3Zm-.68,3h1.37v8.33h-1.37Z"/><path class="cls-2" d="M157.59,44.3h1.34v1.28a3.29,3.29,0,0,1,2.82-1.46c2.18,0,3.55,1.43,3.55,3.78v4.73h-1.37V48c0-1.61-.8-2.62-2.43-2.62A2.55,2.55,0,0,0,158.94,48v4.61h-1.35Z"/><path class="cls-2" d="M166.7,48.47a4.23,4.23,0,0,1,4.24-4.35A3.72,3.72,0,0,1,174,45.71V44.3h1.35v8.18a4,4,0,0,1-4.27,4.21A4.25,4.25,0,0,1,167,54.48l1.2-.71a3,3,0,0,0,2.86,1.7A2.75,2.75,0,0,0,174,52.52v-1.3a3.3,3.3,0,0,1-1.36,1.17,3.84,3.84,0,0,1-1.71.41A4.23,4.23,0,0,1,166.7,48.47Zm7.41,0a3,3,0,1,0-3,3.09A3,3,0,0,0,174.11,48.46Z"/></g></g></svg>